<?xml version="1.0" encoding="UTF-8" standalone="no"?>
<!DOCTYPE svg PUBLIC "-//W3C//DTD SVG 1.1//EN"
 "http://www.w3.org/Graphics/SVG/1.1/DTD/svg11.dtd">
<!-- Generated by graphviz version 2.43.0 (0)
 -->
<!-- Title: %3 Pages: 1 -->
<svg width="472pt" height="238pt"
 viewBox="0.00 0.00 472.00 237.74" xmlns="http://www.w3.org/2000/svg" xmlns:xlink="http://www.w3.org/1999/xlink">
<g id="graph0" class="graph" transform="scale(1 1) rotate(0) translate(36 201.74)">
<title>%3</title>
<polygon fill="dimgray" stroke="transparent" points="-36,36 -36,-201.74 436,-201.74 436,36 -36,36"/>
<text text-anchor="middle" x="200" y="-150.54" font-family="Helvetica,sans-Serif" font-size="14.00">Sweep&#39;s Plan &amp; Progress</text>
<!-- start -->
<g id="node1" class="node">
<title>start</title>
</g>
<!-- 2627389a&#45;5d58&#45;462a&#45;b0cf&#45;9f4c391f63fb -->
<g id="node3" class="node">
<title>2627389a&#45;5d58&#45;462a&#45;b0cf&#45;9f4c391f63fb</title>
<ellipse fill="yellow" stroke="black" cx="197.5" cy="-99.87" rx="143.59" ry="26.74"/>
<text text-anchor="middle" x="197.5" y="-103.67" font-family="Helvetica,sans-Serif" font-size="14.00">⋯ Modify</text>
<text text-anchor="middle" x="197.5" y="-88.67" font-family="Helvetica,sans-Serif" font-size="14.00">broadcast_service/_core.py</text>
</g>
<!-- start&#45;&gt;2627389a&#45;5d58&#45;462a&#45;b0cf&#45;9f4c391f63fb -->
<g id="edge2" class="edge">
<title>start&#45;&gt;2627389a&#45;5d58&#45;462a&#45;b0cf&#45;9f4c391f63fb</title>
<path fill="none" stroke="black" d="M2.06,-99.87C5.23,-99.87 21.5,-99.87 43.41,-99.87"/>
<polygon fill="black" stroke="black" points="43.48,-103.37 53.48,-99.87 43.48,-96.37 43.48,-103.37"/>
<text text-anchor="middle" x="27.98" y="-106.67" font-family="Helvetica,sans-Serif" font-size="14.00">Start</text>
</g>
<!-- end -->
<g id="node2" class="node">
<title>end</title>
</g>
<!-- 2627389a&#45;5d58&#45;462a&#45;b0cf&#45;9f4c391f63fb&#45;&gt;end -->
<g id="edge3" class="edge">
<title>2627389a&#45;5d58&#45;462a&#45;b0cf&#45;9f4c391f63fb&#45;&gt;end</title>
<path fill="none" stroke="black" d="M341.07,-99.87C360.87,-99.87 378,-99.87 388.5,-99.87"/>
<polygon fill="black" stroke="black" points="388.84,-103.37 398.84,-99.87 388.84,-96.37 388.84,-103.37"/>
<text text-anchor="middle" x="370.02" y="-106.67" font-family="Helvetica,sans-Serif" font-size="14.00">Finish</text>
</g>
<!-- e0601e75&#45;71f4&#45;4510&#45;b8a2&#45;98b5d14b33ea -->
<g id="node4" class="node">
<title>e0601e75&#45;71f4&#45;4510&#45;b8a2&#45;98b5d14b33ea</title>
<polygon fill="white" stroke="black" points="395,-36 0,-36 0,0 395,0 395,-36"/>
<text text-anchor="middle" x="197.5" y="-14.3" font-family="Helvetica,sans-Serif" font-size="14.00">▶ Run GitHub Actions for `broadcast_service/_core.py`</text>
</g>
<!-- 2627389a&#45;5d58&#45;462a&#45;b0cf&#45;9f4c391f63fb&#45;&gt;e0601e75&#45;71f4&#45;4510&#45;b8a2&#45;98b5d14b33ea -->
<g id="edge1" class="edge">
<title>2627389a&#45;5d58&#45;462a&#45;b0cf&#45;9f4c391f63fb&#45;&gt;e0601e75&#45;71f4&#45;4510&#45;b8a2&#45;98b5d14b33ea</title>
<path fill="none" stroke="black" stroke-dasharray="5,2" d="M197.5,-72.72C197.5,-64.27 197.5,-54.89 197.5,-46.36"/>
<polygon fill="black" stroke="black" points="201,-46.15 197.5,-36.15 194,-46.15 201,-46.15"/>
</g>
</g>
</svg>
