<?xml version="1.0" encoding="UTF-8" standalone="no"?>
<!DOCTYPE svg PUBLIC "-//W3C//DTD SVG 1.1//EN"
 "http://www.w3.org/Graphics/SVG/1.1/DTD/svg11.dtd">
<!-- Generated by graphviz version 2.43.0 (0)
 -->
<!-- Title: %3 Pages: 1 -->
<svg width="894pt" height="238pt"
 viewBox="0.00 0.00 894.00 237.74" xmlns="http://www.w3.org/2000/svg" xmlns:xlink="http://www.w3.org/1999/xlink">
<g id="graph0" class="graph" transform="scale(1 1) rotate(0) translate(36 201.74)">
<title>%3</title>
<polygon fill="dimgray" stroke="transparent" points="-36,36 -36,-201.74 858,-201.74 858,36 -36,36"/>
<text text-anchor="middle" x="411" y="-150.54" font-family="Helvetica,sans-Serif" font-size="14.00">Sweep&#39;s Plan &amp; Progress</text>
<!-- start -->
<g id="node1" class="node">
<title>start</title>
</g>
<!-- 400af048&#45;bf29&#45;49f8&#45;814e&#45;2431fc45b2dd -->
<g id="node3" class="node">
<title>400af048&#45;bf29&#45;49f8&#45;814e&#45;2431fc45b2dd</title>
<ellipse fill="yellow" stroke="black" cx="240.5" cy="-99.87" rx="143.59" ry="26.74"/>
<text text-anchor="middle" x="240.5" y="-103.67" font-family="Helvetica,sans-Serif" font-size="14.00">⋯ Modify</text>
<text text-anchor="middle" x="240.5" y="-88.67" font-family="Helvetica,sans-Serif" font-size="14.00">broadcast_service/_core.py</text>
</g>
<!-- start&#45;&gt;400af048&#45;bf29&#45;49f8&#45;814e&#45;2431fc45b2dd -->
<g id="edge4" class="edge">
<title>start&#45;&gt;400af048&#45;bf29&#45;49f8&#45;814e&#45;2431fc45b2dd</title>
<path fill="none" stroke="black" d="M45.06,-99.87C48.23,-99.87 64.5,-99.87 86.41,-99.87"/>
<polygon fill="black" stroke="black" points="86.48,-103.37 96.48,-99.87 86.48,-96.37 86.48,-103.37"/>
<text text-anchor="middle" x="70.98" y="-106.67" font-family="Helvetica,sans-Serif" font-size="14.00">Start</text>
</g>
<!-- end -->
<g id="node2" class="node">
<title>end</title>
</g>
<!-- 59a46b88&#45;8741&#45;4ed3&#45;a094&#45;c64e944acb78 -->
<g id="node4" class="node">
<title>59a46b88&#45;8741&#45;4ed3&#45;a094&#45;c64e944acb78</title>
<ellipse fill="white" stroke="black" cx="595.5" cy="-99.87" rx="154.3" ry="26.74"/>
<text text-anchor="middle" x="595.5" y="-103.67" font-family="Helvetica,sans-Serif" font-size="14.00">▶ Create</text>
<text text-anchor="middle" x="595.5" y="-88.67" font-family="Helvetica,sans-Serif" font-size="14.00">tests/test_invoke_callback.py</text>
</g>
<!-- 400af048&#45;bf29&#45;49f8&#45;814e&#45;2431fc45b2dd&#45;&gt;59a46b88&#45;8741&#45;4ed3&#45;a094&#45;c64e944acb78 -->
<g id="edge2" class="edge">
<title>400af048&#45;bf29&#45;49f8&#45;814e&#45;2431fc45b2dd&#45;&gt;59a46b88&#45;8741&#45;4ed3&#45;a094&#45;c64e944acb78</title>
<path fill="none" stroke="black" d="M384.37,-99.87C399.93,-99.87 415.49,-99.87 431.05,-99.87"/>
<polygon fill="black" stroke="black" points="431.28,-103.37 441.28,-99.87 431.28,-96.37 431.28,-103.37"/>
</g>
<!-- c6197c92&#45;0f7f&#45;4e28&#45;9e33&#45;64338ca2702f -->
<g id="node5" class="node">
<title>c6197c92&#45;0f7f&#45;4e28&#45;9e33&#45;64338ca2702f</title>
<polygon fill="white" stroke="black" points="395,-36 0,-36 0,0 395,0 395,-36"/>
<text text-anchor="middle" x="197.5" y="-14.3" font-family="Helvetica,sans-Serif" font-size="14.00">▶ Run GitHub Actions for `broadcast_service/_core.py`</text>
</g>
<!-- 400af048&#45;bf29&#45;49f8&#45;814e&#45;2431fc45b2dd&#45;&gt;c6197c92&#45;0f7f&#45;4e28&#45;9e33&#45;64338ca2702f -->
<g id="edge1" class="edge">
<title>400af048&#45;bf29&#45;49f8&#45;814e&#45;2431fc45b2dd&#45;&gt;c6197c92&#45;0f7f&#45;4e28&#45;9e33&#45;64338ca2702f</title>
<path fill="none" stroke="black" stroke-dasharray="5,2" d="M226.42,-72.72C221.67,-63.9 216.37,-54.05 211.62,-45.23"/>
<polygon fill="black" stroke="black" points="214.55,-43.29 206.73,-36.15 208.39,-46.61 214.55,-43.29"/>
</g>
<!-- 59a46b88&#45;8741&#45;4ed3&#45;a094&#45;c64e944acb78&#45;&gt;end -->
<g id="edge5" class="edge">
<title>59a46b88&#45;8741&#45;4ed3&#45;a094&#45;c64e944acb78&#45;&gt;end</title>
<path fill="none" stroke="black" d="M749.85,-99.87C769.55,-99.87 786.42,-99.87 796.73,-99.87"/>
<polygon fill="black" stroke="black" points="796.86,-103.37 806.86,-99.87 796.86,-96.37 796.86,-103.37"/>
<text text-anchor="middle" x="778.32" y="-106.67" font-family="Helvetica,sans-Serif" font-size="14.00">Finish</text>
</g>
<!-- 1a4b5ca6&#45;5859&#45;47d8&#45;ac42&#45;96ba0407e2bf -->
<g id="node6" class="node">
<title>1a4b5ca6&#45;5859&#45;47d8&#45;ac42&#45;96ba0407e2bf</title>
<polygon fill="white" stroke="black" points="822,-36 413,-36 413,0 822,0 822,-36"/>
<text text-anchor="middle" x="617.5" y="-14.3" font-family="Helvetica,sans-Serif" font-size="14.00">▶ Run GitHub Actions for `tests/test_invoke_callback.py`</text>
</g>
<!-- 59a46b88&#45;8741&#45;4ed3&#45;a094&#45;c64e944acb78&#45;&gt;1a4b5ca6&#45;5859&#45;47d8&#45;ac42&#45;96ba0407e2bf -->
<g id="edge3" class="edge">
<title>59a46b88&#45;8741&#45;4ed3&#45;a094&#45;c64e944acb78&#45;&gt;1a4b5ca6&#45;5859&#45;47d8&#45;ac42&#45;96ba0407e2bf</title>
<path fill="none" stroke="black" stroke-dasharray="5,2" d="M602.7,-72.72C605.08,-64.08 607.73,-54.47 610.12,-45.79"/>
<polygon fill="black" stroke="black" points="613.5,-46.72 612.78,-36.15 606.75,-44.86 613.5,-46.72"/>
</g>
</g>
</svg>
