<?xml version="1.0" encoding="UTF-8" standalone="no"?>
<!DOCTYPE svg PUBLIC "-//W3C//DTD SVG 1.1//EN"
 "http://www.w3.org/Graphics/SVG/1.1/DTD/svg11.dtd">
<!-- Generated by graphviz version 2.43.0 (0)
 -->
<!-- Title: %3 Pages: 1 -->
<svg width="474pt" height="238pt"
 viewBox="0.00 0.00 473.50 237.74" xmlns="http://www.w3.org/2000/svg" xmlns:xlink="http://www.w3.org/1999/xlink">
<g id="graph0" class="graph" transform="scale(1 1) rotate(0) translate(36 201.74)">
<title>%3</title>
<polygon fill="dimgray" stroke="transparent" points="-36,36 -36,-201.74 437.5,-201.74 437.5,36 -36,36"/>
<text text-anchor="middle" x="200.75" y="-150.54" font-family="Helvetica,sans-Serif" font-size="14.00">Sweep&#39;s Plan &amp; Progress</text>
<!-- start -->
<g id="node1" class="node">
<title>start</title>
</g>
<!-- 2627389a&#45;5d58&#45;462a&#45;b0cf&#45;9f4c391f63fb -->
<g id="node3" class="node">
<title>2627389a&#45;5d58&#45;462a&#45;b0cf&#45;9f4c391f63fb</title>
<ellipse fill="#0ee832" stroke="black" cx="199" cy="-99.87" rx="143.59" ry="26.74"/>
<text text-anchor="middle" x="199" y="-103.67" font-family="Helvetica,sans-Serif" font-size="14.00">✓ Modify</text>
<text text-anchor="middle" x="199" y="-88.67" font-family="Helvetica,sans-Serif" font-size="14.00">broadcast_service/_core.py</text>
</g>
<!-- start&#45;&gt;2627389a&#45;5d58&#45;462a&#45;b0cf&#45;9f4c391f63fb -->
<g id="edge2" class="edge">
<title>start&#45;&gt;2627389a&#45;5d58&#45;462a&#45;b0cf&#45;9f4c391f63fb</title>
<path fill="none" stroke="black" d="M3.56,-99.87C6.73,-99.87 23,-99.87 44.91,-99.87"/>
<polygon fill="black" stroke="black" points="44.98,-103.37 54.98,-99.87 44.98,-96.37 44.98,-103.37"/>
<text text-anchor="middle" x="29.48" y="-106.67" font-family="Helvetica,sans-Serif" font-size="14.00">Start</text>
</g>
<!-- end -->
<g id="node2" class="node">
<title>end</title>
</g>
<!-- 2627389a&#45;5d58&#45;462a&#45;b0cf&#45;9f4c391f63fb&#45;&gt;end -->
<g id="edge3" class="edge">
<title>2627389a&#45;5d58&#45;462a&#45;b0cf&#45;9f4c391f63fb&#45;&gt;end</title>
<path fill="none" stroke="black" d="M342.57,-99.87C362.37,-99.87 379.5,-99.87 390,-99.87"/>
<polygon fill="black" stroke="black" points="390.34,-103.37 400.34,-99.87 390.34,-96.37 390.34,-103.37"/>
<text text-anchor="middle" x="371.52" y="-106.67" font-family="Helvetica,sans-Serif" font-size="14.00">Finish</text>
</g>
<!-- e0601e75&#45;71f4&#45;4510&#45;b8a2&#45;98b5d14b33ea -->
<g id="node4" class="node">
<title>e0601e75&#45;71f4&#45;4510&#45;b8a2&#45;98b5d14b33ea</title>
<polygon fill="yellow" stroke="black" points="398,-36 0,-36 0,0 398,0 398,-36"/>
<text text-anchor="middle" x="199" y="-14.3" font-family="Helvetica,sans-Serif" font-size="14.00">⋯ Run GitHub Actions for `broadcast_service/_core.py`</text>
</g>
<!-- 2627389a&#45;5d58&#45;462a&#45;b0cf&#45;9f4c391f63fb&#45;&gt;e0601e75&#45;71f4&#45;4510&#45;b8a2&#45;98b5d14b33ea -->
<g id="edge1" class="edge">
<title>2627389a&#45;5d58&#45;462a&#45;b0cf&#45;9f4c391f63fb&#45;&gt;e0601e75&#45;71f4&#45;4510&#45;b8a2&#45;98b5d14b33ea</title>
<path fill="none" stroke="black" stroke-dasharray="5,2" d="M199,-72.72C199,-64.27 199,-54.89 199,-46.36"/>
<polygon fill="black" stroke="black" points="202.5,-46.15 199,-36.15 195.5,-46.15 202.5,-46.15"/>
</g>
</g>
</svg>
