<?xml version="1.0" encoding="UTF-8" standalone="no"?>
<!DOCTYPE svg PUBLIC "-//W3C//DTD SVG 1.1//EN"
 "http://www.w3.org/Graphics/SVG/1.1/DTD/svg11.dtd">
<!-- Generated by graphviz version 2.43.0 (0)
 -->
<!-- Title: %3 Pages: 1 -->
<svg width="900pt" height="238pt"
 viewBox="0.00 0.00 899.50 237.74" xmlns="http://www.w3.org/2000/svg" xmlns:xlink="http://www.w3.org/1999/xlink">
<g id="graph0" class="graph" transform="scale(1 1) rotate(0) translate(36 201.74)">
<title>%3</title>
<polygon fill="dimgray" stroke="transparent" points="-36,36 -36,-201.74 863.5,-201.74 863.5,36 -36,36"/>
<text text-anchor="middle" x="413.75" y="-150.54" font-family="Helvetica,sans-Serif" font-size="14.00">Sweep&#39;s Plan &amp; Progress</text>
<!-- start -->
<g id="node1" class="node">
<title>start</title>
</g>
<!-- 400af048&#45;bf29&#45;49f8&#45;814e&#45;2431fc45b2dd -->
<g id="node3" class="node">
<title>400af048&#45;bf29&#45;49f8&#45;814e&#45;2431fc45b2dd</title>
<ellipse fill="#0ee832" stroke="black" cx="243" cy="-99.87" rx="143.59" ry="26.74"/>
<text text-anchor="middle" x="243" y="-103.67" font-family="Helvetica,sans-Serif" font-size="14.00">✓ Modify</text>
<text text-anchor="middle" x="243" y="-88.67" font-family="Helvetica,sans-Serif" font-size="14.00">broadcast_service/_core.py</text>
</g>
<!-- start&#45;&gt;400af048&#45;bf29&#45;49f8&#45;814e&#45;2431fc45b2dd -->
<g id="edge4" class="edge">
<title>start&#45;&gt;400af048&#45;bf29&#45;49f8&#45;814e&#45;2431fc45b2dd</title>
<path fill="none" stroke="black" d="M47.56,-99.87C50.73,-99.87 67,-99.87 88.91,-99.87"/>
<polygon fill="black" stroke="black" points="88.98,-103.37 98.98,-99.87 88.98,-96.37 88.98,-103.37"/>
<text text-anchor="middle" x="73.48" y="-106.67" font-family="Helvetica,sans-Serif" font-size="14.00">Start</text>
</g>
<!-- end -->
<g id="node2" class="node">
<title>end</title>
</g>
<!-- 59a46b88&#45;8741&#45;4ed3&#45;a094&#45;c64e944acb78 -->
<g id="node4" class="node">
<title>59a46b88&#45;8741&#45;4ed3&#45;a094&#45;c64e944acb78</title>
<ellipse fill="#0ee832" stroke="black" cx="599" cy="-99.87" rx="154.3" ry="26.74"/>
<text text-anchor="middle" x="599" y="-103.67" font-family="Helvetica,sans-Serif" font-size="14.00">✓ Create</text>
<text text-anchor="middle" x="599" y="-88.67" font-family="Helvetica,sans-Serif" font-size="14.00">tests/test_invoke_callback.py</text>
</g>
<!-- 400af048&#45;bf29&#45;49f8&#45;814e&#45;2431fc45b2dd&#45;&gt;59a46b88&#45;8741&#45;4ed3&#45;a094&#45;c64e944acb78 -->
<g id="edge2" class="edge">
<title>400af048&#45;bf29&#45;49f8&#45;814e&#45;2431fc45b2dd&#45;&gt;59a46b88&#45;8741&#45;4ed3&#45;a094&#45;c64e944acb78</title>
<path fill="none" stroke="black" d="M386.58,-99.87C402.46,-99.87 418.35,-99.87 434.23,-99.87"/>
<polygon fill="black" stroke="black" points="434.67,-103.37 444.67,-99.87 434.67,-96.37 434.67,-103.37"/>
</g>
<!-- c6197c92&#45;0f7f&#45;4e28&#45;9e33&#45;64338ca2702f -->
<g id="node5" class="node">
<title>c6197c92&#45;0f7f&#45;4e28&#45;9e33&#45;64338ca2702f</title>
<polygon fill="#0ee832" stroke="black" points="396,-36 0,-36 0,0 396,0 396,-36"/>
<text text-anchor="middle" x="198" y="-14.3" font-family="Helvetica,sans-Serif" font-size="14.00">✓ Run GitHub Actions for `broadcast_service/_core.py`</text>
</g>
<!-- 400af048&#45;bf29&#45;49f8&#45;814e&#45;2431fc45b2dd&#45;&gt;c6197c92&#45;0f7f&#45;4e28&#45;9e33&#45;64338ca2702f -->
<g id="edge1" class="edge">
<title>400af048&#45;bf29&#45;49f8&#45;814e&#45;2431fc45b2dd&#45;&gt;c6197c92&#45;0f7f&#45;4e28&#45;9e33&#45;64338ca2702f</title>
<path fill="none" stroke="black" stroke-dasharray="5,2" d="M228.27,-72.72C223.24,-63.8 217.63,-53.84 212.62,-44.95"/>
<polygon fill="black" stroke="black" points="215.62,-43.14 207.66,-36.15 209.52,-46.58 215.62,-43.14"/>
</g>
<!-- 59a46b88&#45;8741&#45;4ed3&#45;a094&#45;c64e944acb78&#45;&gt;end -->
<g id="edge5" class="edge">
<title>59a46b88&#45;8741&#45;4ed3&#45;a094&#45;c64e944acb78&#45;&gt;end</title>
<path fill="none" stroke="black" d="M753.35,-99.87C773.05,-99.87 789.92,-99.87 800.23,-99.87"/>
<polygon fill="black" stroke="black" points="800.36,-103.37 810.36,-99.87 800.36,-96.37 800.36,-103.37"/>
<text text-anchor="middle" x="781.82" y="-106.67" font-family="Helvetica,sans-Serif" font-size="14.00">Finish</text>
</g>
<!-- 1a4b5ca6&#45;5859&#45;47d8&#45;ac42&#45;96ba0407e2bf -->
<g id="node6" class="node">
<title>1a4b5ca6&#45;5859&#45;47d8&#45;ac42&#45;96ba0407e2bf</title>
<polygon fill="yellow" stroke="black" points="827.5,-36 414.5,-36 414.5,0 827.5,0 827.5,-36"/>
<text text-anchor="middle" x="621" y="-14.3" font-family="Helvetica,sans-Serif" font-size="14.00">⋯ Run GitHub Actions for `tests/test_invoke_callback.py`</text>
</g>
<!-- 59a46b88&#45;8741&#45;4ed3&#45;a094&#45;c64e944acb78&#45;&gt;1a4b5ca6&#45;5859&#45;47d8&#45;ac42&#45;96ba0407e2bf -->
<g id="edge3" class="edge">
<title>59a46b88&#45;8741&#45;4ed3&#45;a094&#45;c64e944acb78&#45;&gt;1a4b5ca6&#45;5859&#45;47d8&#45;ac42&#45;96ba0407e2bf</title>
<path fill="none" stroke="black" stroke-dasharray="5,2" d="M606.2,-72.72C608.58,-64.08 611.23,-54.47 613.62,-45.79"/>
<polygon fill="black" stroke="black" points="617,-46.72 616.28,-36.15 610.25,-44.86 617,-46.72"/>
</g>
</g>
</svg>
